<?xml version="1.0"?>
<svg xmlns="http://www.w3.org/2000/svg" xmlns:xlink="http://www.w3.org/1999/xlink" version="1.1" id="Capa_1" x="0px" y="0px" viewBox="0 0 58 58" style="enable-background:new 0 0 58 58;" xml:space="preserve" width="512px" height="512px" class=""><g><g>
	<path style="fill:#0C0C0B" d="M44,18.394v21.141c0,2.722-2.207,4.929-4.929,4.929L22,44.535l-10,11v-11H4.929   C2.207,44.535,0,42.328,0,39.606l0-21.141c0-2.722,2.207-4.929,4.929-4.929l34.141-0.071C41.793,13.465,44,15.672,44,18.394z" data-original="#EBBA16" class="" data-old_color="#24231F"/>
	<path style="fill:#F50057" d="M53.071,2.535l-34.141-0.07C16.207,2.465,14,4.672,14,7.394v6.122l25.071-0.052   c2.722,0,4.929,2.207,4.929,4.93v18.441l7,7.7v-11h2.071c2.722,0,4.929-2.207,4.929-4.929V7.465   C58,4.742,55.793,2.535,53.071,2.535z" data-original="#ED8A19" class="active-path" data-old_color="#f50057"/>
	<circle style="fill:#FFFFFF" cx="11" cy="29.45" r="3" data-original="#FFFFFF" class=""/>
	<circle style="fill:#FFFFFF" cx="22" cy="29.45" r="3" data-original="#FFFFFF" class=""/>
	<circle style="fill:#FFFFFF" cx="33" cy="29.45" r="3" data-original="#FFFFFF" class=""/>
</g></g> </svg>
