<?xml version="1.0"?>
<svg xmlns="http://www.w3.org/2000/svg" xmlns:xlink="http://www.w3.org/1999/xlink" version="1.1" id="Capa_1" x="0px" y="0px" viewBox="0 0 512 512" style="enable-background:new 0 0 512 512;" xml:space="preserve" width="512px" height="512px" class=""><g><path style="fill:#4DB5FF;" d="M467.862,52.966H238.345c-24.373,0-44.138,19.765-44.138,44.138V220.69  c0,24.373,19.765,44.138,44.138,44.138h194.207l35.31,35.31v-35.31l0,0c24.373,0,44.138-19.765,44.138-44.138V97.103  C512,72.73,492.235,52.966,467.862,52.966z" data-original="#4DB5FF" class=""/><path style="fill:#3596D8;" d="M462.504,132.414h5.358v17.655h-26.801c-7.839,6.1-15.828,12.014-24.029,17.655h50.829v17.655  h-78.407c-10.54,6.276-21.327,12.156-32.362,17.655h40.148v17.655h-70.621v-3.584c-38.63,16.172-79.139,27.418-120.576,33.474  c8.298,9.066,20.012,14.23,32.3,14.248h194.207l35.31,35.31v-35.31c24.373,0,44.138-19.765,44.138-44.138V97.103  c-0.062-4.078-0.689-8.121-1.871-12.023C495.316,101.897,479.409,117.707,462.504,132.414z M467.862,220.69h-52.966v-17.655h52.966  V220.69z" data-original="#3596D8" class=""/><g>
	<rect x="238.345" y="167.724" style="fill:#235087;" width="229.517" height="17.655" data-original="#235087" class=""/>
	<rect x="326.621" y="203.034" style="fill:#235087;" width="70.621" height="17.655" data-original="#235087" class=""/>
	<rect x="414.897" y="203.034" style="fill:#235087;" width="52.966" height="17.655" data-original="#235087" class=""/>
	<rect x="432.552" y="132.414" style="fill:#235087;" width="35.31" height="17.655" data-original="#235087" class=""/>
	<rect x="238.345" y="97.103" style="fill:#235087;" width="158.897" height="17.655" data-original="#235087" class=""/>
	<rect x="414.897" y="97.103" style="fill:#235087;" width="52.966" height="17.655" data-original="#235087" class=""/>
	<rect x="238.345" y="132.414" style="fill:#235087;" width="52.966" height="17.655" data-original="#235087" class=""/>
	<rect x="308.966" y="132.414" style="fill:#235087;" width="105.931" height="17.655" data-original="#235087" class=""/>
</g><path style="fill:#FD3B7C" d="M44.138,211.862h229.517c24.373,0,44.138,19.765,44.138,44.138v123.586  c0,24.373-19.765,44.138-44.138,44.138H79.448l-35.31,35.31v-35.31l0,0C19.765,423.724,0,403.959,0,379.586V256  C0,231.627,19.765,211.862,44.138,211.862z" data-original="#FFA511" class="active-path" data-old_color="#FD3B7D"/><path style="fill:#F50057" d="M10.823,408.241c8.298,9.79,20.48,15.448,33.315,15.484v35.31l35.31-35.31h194.207  c24.373,0,44.138-19.765,44.138-44.138V256c-0.035-6.638-1.589-13.188-4.537-19.138C236.05,328.157,128.812,388.917,10.823,408.241z  " data-original="#F08015" class="" data-old_color="#f50057"/><g>
	<circle style="fill:#FFFFFF;" cx="229.517" cy="317.793" r="17.655" data-original="#FFFFFF"/>
	<circle style="fill:#FFFFFF;" cx="88.276" cy="317.793" r="17.655" data-original="#FFFFFF"/>
	<circle style="fill:#FFFFFF;" cx="158.897" cy="317.793" r="17.655" data-original="#FFFFFF"/>
</g><path style="fill:#DDD9D4;" d="M214.228,326.462c4.776,8.466,15.519,11.449,23.985,6.674s11.449-15.519,6.674-23.985  c-0.724-1.28-1.598-2.454-2.613-3.513C233.163,312.876,223.832,319.85,214.228,326.462z" data-original="#DDD9D4"/><g>
	<path style="fill:#173A60" d="M467.862,185.379v-17.655h-50.829c-8.987,6.179-18.176,12.067-27.577,17.655H467.862z" data-original="#173A60" class=""/>
	<path style="fill:#173A60" d="M326.621,220.69h70.621v-17.655h-40.148c-9.984,4.996-20.118,9.71-30.473,14.071V220.69z" data-original="#173A60" class=""/>
	<rect x="414.897" y="203.034" style="fill:#173A60" width="52.966" height="17.655" data-original="#173A60" class=""/>
	<path style="fill:#173A60" d="M467.862,150.069v-17.655h-5.358c-6.983,6.073-14.133,11.961-21.442,17.655H467.862z" data-original="#173A60" class=""/>
</g></g> </svg>
