<svg width="739.999" height="511.999" xmlns="http://www.w3.org/2000/svg">

 <g>
  <title>background</title>
  <rect fill="none" id="canvas_background" height="513.999" width="741.999" y="-1" x="-1"/>
 </g>
 <g>
  <title>Layer 1</title>
  <path stroke="null" id="svg_1" fill="#EC5569" d="m599.167227,1l-456.335468,0c-75.940911,0 -137.499759,42.201 -137.499759,94.257l0,205.172c0,52.057 61.561766,94.257 137.499759,94.257l65.490247,0c3.115943,0 5.641083,1.731 5.641083,3.867l0,101.207c0,11.966 21.35209,17.768 33.309669,9.05l154.904404,-112.906c1.066365,-0.778 2.554315,-1.218 4.110828,-1.218l192.879236,0c75.939452,0 137.499759,-42.201 137.499759,-94.257l0,-205.172c0,-52.056 -61.561766,-94.257 -137.499759,-94.257z"/>
  <path stroke="null" id="svg_2" fill="#E63950" d="m273.005008,358.816193c0,-2.244499 -2.455864,-4.06385 -5.48613,-4.06385l-63.685407,0c-73.845883,0 -133.709754,-44.35006 -133.709754,-99.058347l0,-215.624582c0,-9.257435 1.720277,-18.216468 4.924915,-26.716422c-41.645643,16.201509 -69.716632,46.737272 -69.716632,81.740077l0,204.761368c0,51.951815 61.837648,94.068354 138.115949,94.068354l65.783734,0c3.129907,0 5.666363,1.728534 5.666363,3.859261l0,101.004444c0,11.942051 21.447777,17.732439 33.458943,9.031887l24.646554,-17.849205l0,-131.152983l0.001465,0z"/>
  <path id="svg_3" fill="#EC5569" d="m361.908,122.325l0,0c-23.931,-23.931 -62.731,-23.931 -86.663,0l-13.518,13.518c-3.223,3.223 -8.45,3.223 -11.673,0l-13.302,-13.302c-23.931,-23.931 -62.731,-23.931 -86.663,0l0,0c-23.931,23.931 -23.931,62.731 0,86.663l99.973,99.973c3.223,3.223 8.45,3.223 11.673,0l100.172,-100.189c23.932,-23.932 23.932,-62.731 0.001,-86.663z"/>
  <path id="svg_4" fill="#FFF5F5" d="m361.908,122.325l0,0c-23.931,-23.931 -62.731,-23.931 -86.663,0l-13.518,13.518c-3.223,3.223 -8.45,3.223 -11.673,0l-13.302,-13.302c-23.931,-23.931 -62.731,-23.931 -86.663,0l0,0c-23.931,23.931 -23.931,62.731 0,86.663l99.973,99.973c3.223,3.223 8.45,3.223 11.673,0l100.172,-100.189c23.932,-23.932 23.932,-62.731 0.001,-86.663z"/>
  <path id="svg_5" fill="#DCE6EB" d="m182.145,209.204c-23.931,-23.931 -23.931,-62.731 0,-86.663l0,0c7.85,-7.85 17.304,-13.108 27.303,-15.807c-20.486,-5.532 -43.278,-0.274 -59.358,15.807l0,0c-23.931,23.931 -23.931,62.731 0,86.663l99.973,99.973c3.223,3.223 8.45,3.223 11.673,0l10.19,-10.192l-89.781,-89.781z"/>
  <g id="svg_6"/>
  <g id="svg_7"/>
  <g id="svg_8"/>
  <g id="svg_9"/>
  <g id="svg_10"/>
  <g id="svg_11"/>
  <g id="svg_12"/>
  <g id="svg_13"/>
  <g id="svg_14"/>
  <g id="svg_15"/>
  <g id="svg_16"/>
  <g id="svg_17"/>
  <g id="svg_18"/>
  <g id="svg_19"/>
  <g id="svg_20"/>
 </g>
</svg>