<?xml version="1.0"?>
<svg xmlns="http://www.w3.org/2000/svg" height="512px" viewBox="0 -44 423.25333 423" width="512px" class=""><g><path d="m6.828125 102.492188c0-15.0625 12.257813-27.273438 27.347656-27.273438h354.898438c15.105469 0 27.351562 12.183594 27.351562 27.273438v198.042968c0 15.0625-12.257812 27.273438-27.351562 27.273438h-354.898438c-15.105469 0-27.347656-12.183594-27.347656-27.273438zm0 0" fill="#0e65e5" data-original="#0E65E5" class="" style="fill:#020202" data-old_color="#181315"/><path d="m389.074219 334.632812h-354.894531c-18.847657 0-34.179688-15.296874-34.179688-34.097656v-198.042968c0-18.800782 15.332031-34.097657 34.179688-34.097657h354.890624c18.851563 0 34.183594 15.296875 34.183594 34.097657v198.046874c0 18.796876-15.332031 34.09375-34.179687 34.09375zm-354.894531-252.585937c-11.320313 0-20.527344 9.167969-20.527344 20.445313v198.046874c0 11.269532 9.207031 20.441407 20.527344 20.441407h354.890624c11.320313 0 20.527344-9.171875 20.527344-20.445313v-198.042968c0-11.273438-9.207031-20.445313-20.527344-20.445313zm0 0" fill="#0e65e5" data-original="#0E65E5" class="" style="fill:#020202" data-old_color="#181315"/><path d="m129.707031 6.953125h163.839844l13.652344 75.09375h-191.144531zm0 0" fill="#94c1ff" data-original="#94C1FF" class="active-path" style="fill:#F50057" data-old_color="#f50057"/><path d="m307.199219 88.875h-191.144531c-2.027344 0-3.945313-.902344-5.242188-2.457031-1.300781-1.550781-1.839844-3.601563-1.472656-5.589844l13.65625-75.09375c.582031-3.246094 3.410156-5.609375 6.710937-5.609375h163.839844c3.300781 0 6.125 2.363281 6.714844 5.609375l13.652343 75.09375c.367188 1.988281-.175781 4.039063-1.472656 5.589844-1.296875 1.554687-3.214844 2.457031-5.242187 2.457031zm-182.964844-13.65625h174.785156l-11.171875-61.4375h-152.441406zm0 0" fill="#0e65e5" data-original="#0E65E5" class="" style="fill:#020202" data-old_color="#181315"/><path d="m6.828125 82.011719c0-15.0625 12.257813-27.273438 27.347656-27.273438h354.898438c15.105469 0 27.351562 12.183594 27.351562 27.273438v198.042969c0 15.0625-12.257812 27.273437-27.351562 27.273437h-354.898438c-15.105469 0-27.347656-12.183594-27.347656-27.273437zm0 0" fill="#d7e9ff" data-original="#D7E9FF" class="" style="fill:#FEFEFF" data-old_color="#FCFCFD"/><path d="m389.074219 314.152344h-354.894531c-18.847657 0-34.179688-15.296875-34.179688-34.097656v-198.042969c0-18.800781 15.332031-34.097657 34.179688-34.097657h354.890624c18.851563 0 34.183594 15.296876 34.183594 34.097657v198.046875c0 18.796875-15.332031 34.09375-34.179687 34.09375zm-354.894531-252.585938c-11.320313 0-20.527344 9.171875-20.527344 20.445313v198.046875c0 11.269531 9.207031 20.441406 20.527344 20.441406h354.890624c11.320313 0 20.527344-9.171875 20.527344-20.445312v-198.042969c.003906-11.273438-9.207031-20.445313-20.523437-20.445313zm0 0" fill="#0e65e5" data-original="#0E65E5" class="" style="fill:#020202" data-old_color="#181315"/><path d="m314.027344 184.445312c0 56.554688-45.847656 102.402344-102.402344 102.402344-56.550781 0-102.398438-45.847656-102.398438-102.402344 0-56.550781 45.847657-102.398437 102.398438-102.398437 56.554688 0 102.402344 45.847656 102.402344 102.398437zm0 0" fill="#2a8ee6" data-original="#2A8EE6" class="" style="fill:#F50057" data-old_color="#f50057"/><path d="m211.625 293.671875c-60.226562 0-109.226562-49-109.226562-109.226563 0-60.226562 49-109.226562 109.226562-109.226562s109.226562 49 109.226562 109.226562c0 60.226563-49 109.226563-109.226562 109.226563zm0-204.796875c-52.699219 0-95.570312 42.871094-95.570312 95.570312 0 52.703126 42.871093 95.574219 95.570312 95.574219 52.703125 0 95.574219-42.871093 95.574219-95.574219 0-52.699218-42.871094-95.570312-95.574219-95.570312zm0 0" fill="#0e65e5" data-original="#0E65E5" class="" style="fill:#020202" data-old_color="#181315"/><path d="m286.71875 184.445312c0 41.472657-33.621094 75.09375-75.09375 75.09375s-75.089844-33.621093-75.089844-75.09375c0-41.472656 33.617188-75.09375 75.089844-75.09375s75.09375 33.621094 75.09375 75.09375zm0 0" fill="#d7e9ff" data-original="#D7E9FF" class="" style="fill:#FEFEFF" data-old_color="#FCFCFD"/><path d="m211.625 266.367188c-45.171875 0-81.917969-36.75-81.917969-81.921876 0-45.167968 36.746094-81.917968 81.917969-81.917968 45.175781 0 81.921875 36.75 81.921875 81.917968 0 45.171876-36.746094 81.921876-81.921875 81.921876zm0-150.1875c-37.640625 0-68.265625 30.621093-68.265625 68.265624 0 37.644532 30.625 68.269532 68.265625 68.269532s68.269531-30.625 68.269531-68.269532c0-37.644531-30.628906-68.265624-68.269531-68.265624zm0 0" fill="#0e65e5" data-original="#0E65E5" class="" style="fill:#020202" data-old_color="#181315"/><path d="m163.839844 191.273438c-3.773438 0-6.828125-3.058594-6.828125-6.828126 0-30.113281 24.5-54.613281 54.613281-54.613281 3.773438 0 6.828125 3.058594 6.828125 6.828125 0 3.769532-3.054687 6.828125-6.828125 6.828125-22.585938 0-40.957031 18.371094-40.957031 40.957031 0 3.769532-3.054688 6.828126-6.828125 6.828126zm0 0" fill="#fff" data-original="#FFF"/><path d="m47.785156 27.433594h47.789063v27.304687h-47.789063zm0 0" fill="#94c1ff" data-original="#94C1FF" class="active-path" style="fill:#F50057" data-old_color="#f50057"/><path d="m95.574219 61.566406h-47.789063c-3.773437 0-6.824218-3.054687-6.824218-6.828125v-27.304687c0-3.769532 3.050781-6.828125 6.824218-6.828125h47.789063c3.773437 0 6.824219 3.058593 6.824219 6.828125v27.304687c0 3.773438-3.050782 6.828125-6.824219 6.828125zm-40.960938-13.652344h34.132813v-13.652343h-34.132813zm0 0" fill="#0e65e5" data-original="#0E65E5" class="" style="fill:#020202" data-old_color="#181315"/><path d="m389.121094 95.699219c0 11.3125-9.171875 20.480469-20.480469 20.480469-11.3125 0-20.480469-9.167969-20.480469-20.480469 0-11.308594 9.167969-20.480469 20.480469-20.480469 11.308594 0 20.480469 9.171875 20.480469 20.480469zm0 0" fill="#2a8ee6" data-original="#2A8EE6" class="" style="fill:#F50057" data-old_color="#f50057"/><path d="m368.640625 123.007812c-15.058594 0-27.308594-12.25-27.308594-27.308593 0-15.054688 12.25-27.304688 27.308594-27.304688s27.304687 12.25 27.304687 27.304688c0 15.058593-12.246093 27.308593-27.304687 27.308593zm0-40.960937c-7.527344 0-13.652344 6.125-13.652344 13.652344 0 7.53125 6.125 13.652343 13.652344 13.652343s13.652344-6.121093 13.652344-13.652343c0-7.527344-6.125-13.652344-13.652344-13.652344zm0 0" fill="#0e65e5" data-original="#0E65E5" class="" style="fill:#020202" data-old_color="#181315"/><g fill="#fff"><path d="m348.160156 320.980469c-3.773437 0-6.828125-3.058594-6.828125-6.828125v-27.304688c0-3.769531 3.054688-6.828125 6.828125-6.828125 3.773438 0 6.828125 3.058594 6.828125 6.828125v27.304688c0 3.769531-3.054687 6.828125-6.828125 6.828125zm0 0" data-original="#000000" class="" style="fill:#F50057" data-old_color="#f50057"/><path d="m361.8125 307.328125h-27.304688c-3.773437 0-6.828124-3.058594-6.828124-6.828125s3.054687-6.828125 6.828124-6.828125h27.304688c3.773438 0 6.828125 3.058594 6.828125 6.828125s-3.054687 6.828125-6.828125 6.828125zm0 0" data-original="#000000" class="" style="fill:#F50057" data-old_color="#f50057"/></g></g> </svg>
